<svg class="logo-desktop"
     aria-labelledby="svg-logo-title"
     xmlns="http://www.w3.org/2000/svg"
     xml:space="preserve"
     style="enable-background:new 0 0 283.4646 283.4646"
     viewBox="0 0 283.465 283.465">
    <title id="svg-logo-title">ecoplus Logo – mit Klick zurück zur Startseite</title>
    <path d="M0 0h283.465v283.465H0z"
          fill="#0072b6" />
    <g>
        <path d="M97.032 158.834c0 1.373 0 2.44-.152 4.12H39.97c.763 10.68 10.985 20.597 24.259 20.597 13.884 0 21.208-10.375 21.208-10.375l8.086 8.392s-10.68 13.884-29.294 13.884c-21.361 0-36.771-16.174-36.771-37.076 0-20.597 14.037-37.076 35.245-37.076 19.682 0 34.329 14.8 34.329 37.534zm-12.51-6.56c-.459-7.934-7.63-19.073-21.82-19.073-15.256 0-21.512 11.748-22.428 19.073h44.248zM173.634 181.873s-10.222 13.579-28.836 13.579c-20.75 0-36.313-16.326-36.313-37.076 0-20.597 15.563-37.076 36.313-37.076 18.004 0 28.074 12.665 28.074 12.665l-8.698 7.78s-6.866-8.544-19.376-8.544c-14.19 0-23.497 11.29-23.497 25.175s9.308 25.175 23.497 25.175c13.731 0 20.597-10.07 20.597-10.07l8.239 8.392zM256.007 158.376c0 20.75-15.562 37.076-36.313 37.076s-36.312-16.326-36.312-37.076 15.562-37.075 36.312-37.075 36.313 16.325 36.313 37.075zm-12.817 0c0-13.884-9.306-25.174-23.496-25.174s-23.497 11.29-23.497 25.174 9.308 25.175 23.497 25.175 23.496-11.29 23.496-25.175z"
              fill="#fff" />
        <path d="M211.922 91.09V76.435h4.145V90.4c0 3.898 2.418 5.576 5.478 5.576 3.848 0 5.674-3.75 5.674-3.75v-15.79h4.145v22.797h-3.849v-3.504s-2.072 4.096-7.008 4.096c-4.539 0-8.585-3.109-8.585-8.735zM239.206 92.374s2.418 3.7 6.908 3.7c2.32 0 4.934-.987 4.934-2.812 0-1.974-1.677-2.96-5.18-3.652-4.886-.986-8.34-2.911-8.34-7.204 0-3.307 3.306-6.564 8.389-6.564 5.379 0 8.438 3.454 8.438 3.454l-2.714 2.814s-2.27-2.517-5.724-2.517c-2.911 0-4.343 1.431-4.343 2.911 0 1.727 1.776 2.666 5.527 3.455 4.343.937 8.043 2.566 8.043 7.205 0 4.391-4.638 6.66-9.03 6.66-6.415 0-9.77-4.785-9.77-4.785l2.862-2.665zM184.333 75.842c-5.428 0-7.698 3.899-7.698 3.899v-3.306h-3.8v34.037h4.146V96.42c.789 1.036 3.158 3.405 7.352 3.405 6.168 0 11.054-5.28 11.054-11.991 0-6.711-4.886-11.992-11.054-11.992zm-.641 20.134c-4.54 0-6.711-3.898-6.711-3.898V83.59s2.17-3.898 6.71-3.898c4.64 0 7.55 3.651 7.55 8.142 0 4.49-2.91 8.142-7.55 8.142zM201.119 65.12h4.144v34.092h-4.144z"
              fill="#ffd500" />
    </g>
</svg>