<svg xmlns="http://www.w3.org/2000/svg"
     focusable="false"
     aria-hidden="true"
     width="192"
     height="60"
     viewBox="0 0 192 60">
    <g fill="none"
       fill-rule="evenodd">
        <polygon fill="#1A1919"
                 points="3.388 56.424 2.763 56.424 2.763 2.847 21.108 2.847 21.108 40.261 20.482 40.261 20.482 3.472 3.388 3.472" />
        <polygon fill="#00A173"
                 points="2.761 56.424 29.34 56.424 55.918 29.845 55.918 16.614 42.781 16.614" />
        <path fill="#1A1919"
              d="M0.6255,58.515 L58.515,58.515 L58.515,0.6255 L0.6255,0.6255 L0.6255,58.515 Z M-2.55795385e-13,59.139 L59.139,59.139 L59.139,-2.84217094e-14 L-2.55795385e-13,-2.84217094e-14 L-2.55795385e-13,59.139 Z" />
        <g fill="#1A1919"
           transform="translate(68.704 15.511)">
            <path d="M62.115 26.19495C62.1165 26.67345 62.127 27.04245 62.127 27.37395 62.127 31.02495 64.443 32.48295 67.419 32.48295 70.797 32.48295 72.2685 30.61695 72.2685 26.11095L72.279 18.81495 71.157 18.81495 71.1585 26.15295C71.115 29.27595 70.611 31.15245 68.1855 31.15245 66.075 31.15245 64.9035 30.47595 64.758 26.53845L64.758 18.81495 62.115 18.81495 62.115 26.19495zM82.05345 3.0603C82.05345 2.2098 82.05345 2.6328 82.04745 1.8363 81.32145 1.3023 80.11695.9198 78.85545.9198 76.77045.9198 74.56995 2.4183 74.56995 5.1048 74.56995 9.5223 80.63745 8.7243 80.63745 11.6643 80.63745 12.7533 79.45095 13.8408 78.08445 13.8408 76.66545 13.8408 74.50845 12.5943 74.50845 12.5943 74.50845 13.7358 74.50395 13.0113 74.50845 13.9623 75.24645 14.3433 76.38495 14.8563 77.64495 14.8563 80.43195 14.8563 82.79145 13.0653 82.79145 10.4568 82.79145 6.0378 76.96245 6.7593 76.96245 3.8778 76.96245 2.9433 77.71695 1.8303 78.78495 1.8318 80.61795 1.8333 82.05345 3.0603 82.05345 3.0603" />
            <polygon points="24.31 1.121 25.48 1.121 25.48 14.608 24.223 14.608 16.692 5.17 16.692 14.608 15.478 14.608 15.478 1.121 16.752 1.121 24.31 10.256" />
            <polygon points="31 14.607 33.556 14.607 33.556 1.121 31 1.121" />
            <polygon points="36.695 1.121 39.685 1.121 42.91 10.907 46.307 1.121 47.608 1.121 42.823 14.608 41.48 14.608" />
            <polygon points="57.792 1.121 57.792 2.273 53.238 2.273 53.238 6.595 57.663 6.595 57.663 7.747 53.238 7.747 53.238 13.357 57.919 13.357 57.919 14.608 50.637 14.608 50.637 1.121" />
            <polygon points="86.607 14.607 89.163 14.607 89.163 1.121 86.607 1.121" />
            <polygon points="92.213 1.121 101.248 1.121 101.248 2.306 97.984 2.306 97.984 14.608 95.51 14.608 95.51 2.369 92.213 2.369" />
            <path d="M0.62205,8.50125 C0.62355,8.97975 0.63405,9.35025 0.63405,9.68025 C0.63405,13.33125 2.95005,14.78925 5.92605,14.78925 C9.30405,14.78925 10.77555,12.92325 10.77555,8.41725 L10.78455,1.12125 L9.66405,1.12125 L9.66555,8.46075 C9.62055,11.58225 9.11655,13.46025 6.69255,13.46025 C4.58205,13.46025 3.41055,12.78225 3.26505,8.84625 L3.26505,1.12125 L0.62205,1.12125 L0.62205,8.50125 Z" />
            <polygon points="113.6 1.121 122.635 1.121 122.635 2.306 119.371 2.306 119.371 14.608 116.897 14.608 116.897 2.369 113.6 2.369" />
            <path d="M69.14955 14.6079L72.13455 14.6079C70.72755 12.4164 69.19905 10.0959 67.96905 7.9059 69.87255 7.4214 70.95255 6.2199 70.95255 4.3389 70.95255 3.1959 70.46955 2.3424 69.70005 1.7799 69.02655 1.2954 68.31405 1.1214 66.37005 1.1214L62.11455 1.1214 62.11455 14.6079 64.69905 14.6079 64.69905 8.2989 65.50305 8.2989 69.14955 14.6079zM68.53905 4.8579C68.53905 6.6804 67.89255 7.6389 65.38905 7.6344 65.25255 7.6344 64.85205 7.6404 64.69905 7.6224L64.69905 2.1459C67.61205 2.1234 68.53905 2.5719 68.53905 4.8579L68.53905 4.8579zM18.9255 18.8151L17.601 18.8151 12.669 32.2446 13.9245 32.2446 15.45 28.1241 19.5285 28.1241 20.7855 32.2446 23.8095 32.2446 18.9255 18.8151zM15.7695 27.1821L19.1805 27.1821C18.6735 25.6101 18.0765 23.6826 17.517 22.1676 16.914 23.9526 16.4985 25.1721 15.7695 27.1821L15.7695 27.1821zM44.4744 32.2449L47.4579 32.2449C46.0524 30.0534 44.5719 27.7989 43.3404 25.6074 45.2454 25.1229 46.3239 23.9214 46.3239 22.0404 46.3239 20.8974 45.8424 20.0439 45.0729 19.4829 44.3994 18.9969 43.6869 18.8229 41.7429 18.8229L37.4889 18.8229 37.4889 32.2449 40.0719 32.2449 40.0719 26.0004 40.8744 26.0004 44.4744 32.2449zM43.9119 22.4949C43.9119 24.3174 43.2639 25.2759 40.7604 25.2714 40.6269 25.2714 40.2264 25.2789 40.0719 25.2594L40.0719 19.7829C42.9849 19.7619 43.9119 20.2089 43.9119 22.4949L43.9119 22.4949zM.62205 18.8151L.62205 32.2446 5.64705 32.2476C8.05005 32.2476 10.34055 31.1376 10.34055 28.3551 10.34055 26.0001 7.93755 25.1436 6.70455 25.0851 7.95705 24.8526 9.99705 23.9571 9.99705 21.8361 9.99705 19.7151 8.70705 18.8001 5.91855 18.8196L.62205 18.8151zM7.30755 22.2066C7.30755 23.8596 5.87955 24.7011 4.72905 24.7011L3.22605 24.7011 3.22605 19.7796 4.83105 19.7796C6.42705 19.7796 7.30755 20.9601 7.30755 22.2066L7.30755 22.2066zM3.21855 25.6356L4.66605 25.6356C6.28155 25.6356 7.40955 26.6811 7.40955 28.4901 7.40955 30.1836 6.19005 31.2516 4.99905 31.2516L3.21855 31.2486 3.21855 25.6356zM103.28205 1.05855C103.28205.50055 103.73505.04755 104.29305.04755 104.85255.04755 105.30405.50055 105.30405 1.05855 105.30405 1.61655 104.85255 2.06955 104.29305 2.06955 103.73505 2.06955 103.28205 1.61655 103.28205 1.05855M109.59675 1.05855C109.59675.50055 110.04975.04755 110.60775.04755 111.16725.04755 111.61875.50055 111.61875 1.05855 111.61875 1.61655 111.16725 2.06955 110.60775 2.06955 110.04975 2.06955 109.59675 1.61655 109.59675 1.05855M108.1602 1.0971L106.8357 1.0971 101.9022 14.5266 103.1592 14.5266 104.6832 10.4061 108.7632 10.4061 110.0202 14.5266 113.0427 14.5266 108.1602 1.0971zM105.0042 9.4656L108.4137 9.4656C107.9067 7.8921 107.3097 5.9646 106.7502 4.4496 106.1472 6.2346 105.7332 7.4541 105.0042 9.4656L105.0042 9.4656z" />
            <polygon points="24.373 18.815 28.202 26.656 28.202 32.245 30.797 32.245 30.797 26.312 34.685 18.815 33.28 18.815 30.11 25.039 27.067 18.815" />
            <polygon points="57.792 18.815 57.792 19.967 53.238 19.967 53.238 24.289 57.663 24.289 57.663 25.439 53.238 25.439 53.238 31.051 57.919 31.051 57.919 32.245 50.637 32.245 50.637 18.815" />
            <polygon points="74.725 18.815 83.759 18.815 83.759 19.999 80.495 19.999 80.495 32.245 78.022 32.245 78.022 20.063 74.725 20.063" />
            <polygon points="86.607 18.815 89.23 18.815 89.23 24.289 94.264 24.289 94.264 18.815 96.825 18.815 96.825 32.245 94.297 32.245 94.297 25.577 89.199 25.577 89.199 32.245 86.607 32.245" />
        </g>
    </g>
</svg>