<svg xmlns="http://www.w3.org/2000/svg"
     id="Layer_2"
     viewBox="0 0 454.63 354.32">
    <defs>
        <style>.cls-1{fill:#009ee3;}.cls-2{fill:#707e85;}</style>
    </defs>
    <g id="Ebene_1">
        <g>
            <path class="cls-2"
                  d="M95.01,143.09c0,15.17-9.59,26.85-26.1,26.85s-26.09-11.67-26.09-26.85,9.59-27.08,26.09-27.08,26.1,12.38,26.1,27.08m42.82,0c0-40.85-32.12-63.96-68.92-63.96S0,102.23,0,143.09s32.34,63.73,68.91,63.73,68.92-23.11,68.92-63.73" />
            <rect class="cls-2"
                  x="257.58"
                  y="18.82"
                  width="40.19"
                  height="36.76" />
            <polygon class="cls-1"
                     points="215.26 83.09 215.26 115.29 257.58 115.29 257.58 202.85 297.77 202.85 297.77 83.09 215.26 83.09" />
            <path class="cls-2"
                  d="M214.03,18.37c-14.83,0-31.61,6.65-42.12,19.02-11.67,13.31-12.14,25.45-12.14,42.02v3.68h-14.36v33.29h14.36v86.46h42.49V75.2c0-13.54,3.74-20.07,14.7-20.07,0,0,0,0,0,0h17.42V18.37h-20.37Z" />
            <path class="cls-1"
                  d="M224.05,280.46c11.7,3.46,23.76,5.22,35.85,5.22h0c55.39,0,105.07-37.13,120.81-90.29,16.39-55.32-7.15-113.13-53.73-142.47l-2.62,3.12c45.41,28.31,68.41,84.46,52.49,138.2-15.24,51.46-63.33,87.4-116.95,87.4-11.7,0-23.38-1.7-34.7-5.05-26.81-7.95-48.84-24.36-64.08-45.44l-3.09,2.62c15.74,21.66,38.43,38.51,66.02,46.69Z" />
            <g>
                <rect class="cls-1"
                      x="395.69"
                      y="118.49"
                      width="3.48"
                      height="3.57"
                      transform="translate(-17.39 101.8) rotate(-14.29)" />
                <polygon class="cls-1"
                         points="403.31 206.36 399.7 204.98 394.15 219.64 397.75 221.01 399.68 215.95 417.79 222.82 419.52 218.28 401.4 211.41 403.31 206.36" />
                <rect class="cls-1"
                      x="346.19"
                      y="279.92"
                      width="4.86"
                      height="23.24"
                      transform="translate(-103.95 250.2) rotate(-34.69)" />
                <path class="cls-1"
                      d="M406.83,231.28l-14.48-7.87-2.32,4.27,14.19,7.71c2.26,1.23,3.04,2.75,2.04,4.62-.85,1.56-2.42,2.09-4.94,.72l-14.19-7.71-2.32,4.27,14.47,7.86c3.85,2.09,7.51,1.15,10.06-3.55,2.83-5.2,.54-8.68-2.51-10.34Z" />
                <path class="cls-1"
                      d="M385.73,255.17l2.86,2.14,1.58-2.11,4.13,3.09c-.24,.74-.61,1.56-1.08,2.2-1.67,2.22-3.12,2.02-8.94-2.34-3.61-2.7-6.88-5.16-5.07-7.58,1.54-2.05,3.27-1.2,4.99,.12l2.89-3.87c-3.71-3.15-7.63-2.38-10.48,1.44-4.77,6.36-.17,10.16,4.51,13.67,7.05,5.29,10.32,6.56,15.22,.03,1.16-1.55,2.73-4.51,3.32-5.72l-9.43-7.06-4.5,6.01Z" />
                <polygon class="cls-1"
                         points="367.38 34.18 367.44 34.22 360.9 50.18 365.69 54.68 381.61 37.75 378.31 34.65 366.66 47.02 366.61 46.97 373.65 30.26 368.99 25.87 353.06 42.78 356.36 45.9 367.38 34.18" />
                <polygon class="cls-1"
                         points="393.73 96.61 408.57 90.4 408.6 90.45 396.14 102.37 398.68 108.43 420.11 99.46 418.36 95.27 402.68 101.83 402.66 101.77 415.88 89.36 413.41 83.45 391.98 92.42 393.73 96.61" />
                <polygon class="cls-1"
                         points="379.67 51.1 376.9 53.36 381.46 58.95 377.03 62.57 372.08 56.51 369.31 58.77 377.33 68.59 395.33 53.91 387.16 43.88 384.39 46.14 389.49 52.4 384.23 56.69 379.67 51.1" />
                <rect class="cls-1"
                      x="397.1"
                      y="124.01"
                      width="3.47"
                      height="3.58"
                      transform="translate(-18.76 103.31) rotate(-14.42)" />
                <polygon class="cls-1"
                         points="358.63 268.75 369.29 280.8 369.25 280.84 353.96 272.89 349.04 277.24 364.44 294.64 367.84 291.62 356.58 278.9 356.63 278.86 372.64 287.38 377.43 283.13 362.02 265.73 358.63 268.75" />
                <polygon class="cls-1"
                         points="429.37 174.66 430 168.28 406.89 165.97 406.43 170.48 422.45 172.09 422.44 172.15 405.81 176.7 405.16 183.23 428.28 185.54 428.73 181.03 411.82 179.34 411.83 179.27 429.37 174.66" />
                <polygon class="cls-1"
                         points="405.9 140.65 415.15 139.71 415.71 145.25 406.46 146.19 406.95 151.02 430.07 148.67 429.58 143.83 419.27 144.88 418.7 139.34 429.02 138.3 428.52 133.46 405.41 135.81 405.9 140.65" />
                <path class="cls-1"
                      d="M403.25,124.98l24.11,.49-1.19-4.64h-5.32l-1.64-6.43,4.67-2.52-1.27-4.95-20.96,11.85,1.59,6.2Zm12.75-8.7l1.15,4.49-10.28,.33v-.06l9.13-4.76Z" />
                <polygon class="cls-1"
                         points="258.89 317.55 253.33 317.49 253.43 308.19 248.57 308.13 248.32 331.37 253.17 331.42 253.29 321.06 258.85 321.11 258.74 331.48 263.6 331.54 263.86 308.3 259 308.25 258.89 317.55" />
                <polygon class="cls-1"
                         points="190.97 292.63 189.42 296.16 194.37 298.35 186.56 316.08 191 318.04 198.81 300.3 203.76 302.48 205.31 298.95 190.97 292.63" />
                <path class="cls-1"
                      d="M216.6,302.04c-5.69-1.62-8.17,.69-9.16,4.19-1.9,6.65,7.44,9.58,6.3,13.6-.43,1.52-1.5,2.32-3.08,1.87-2.57-.73-2.15-2.55-1.54-4.69l-4.67-1.33c-1.36,3.8-1.24,7.51,4.55,9.16,3.56,1.01,7.99,1.53,9.64-4.25,2-7.03-7.51-9.33-6.3-13.57,.44-1.55,1.57-2.13,3.09-1.7,1.89,.54,1.68,2.31,1.21,3.99l4.55,1.3c1.64-4.59-.04-7.27-4.58-8.57Z" />
                <path class="cls-1"
                      d="M183.03,288.13l-7.71-4.6-11.9,19.95,4.17,2.49,4.93-8.26,1.08,.65c3.2,1.91,1.78,3.8,.36,6.17-.78,1.3-1.69,2.59-1.87,4.14l4.09,2.44c.1-1.06,2.27-4.87,3.02-6.14,2.14-3.6-.43-5.43-1.28-6.09l.04-.05c2.97,1.17,5.1-.14,6.62-2.69,2.03-3.4,1.29-6.3-1.55-8Zm-2.95,5.96c-.76,1.27-2.22,2.65-3.87,1.66l-1.86-1.11,3.32-5.56,1.85,1.11c1.33,.79,1.7,1.99,.56,3.89Z" />
                <polygon class="cls-1"
                         points="143.25 268.72 147.53 264.58 152.54 269.77 155.11 267.29 146.73 258.6 130.01 274.74 133.38 278.24 140.68 271.2 145.46 276.16 148.03 273.67 143.25 268.72" />
                <path class="cls-1"
                      d="M236.35,306.29c-7.92-1.21-8.8,4.59-9.72,10.67-.91,6.01-1.8,11.86,6.12,13.07,4.49,.68,7.23-.92,8.17-7.06l-4.74-.72c-.34,1.8-.68,4.68-2.91,4.34-2.71-.41-2.67-3.01-1.77-8.89,.9-5.89,1.63-8.38,4.34-7.97,1.43,.22,1.79,1.45,1.33,4.5l4.72,.71c.94-4.9-.63-7.9-5.53-8.65Z" />
                <polygon class="cls-1"
                         points="421.2 200.86 414.6 199.26 416.3 192.25 412.83 191.41 411.13 198.42 405.57 197.07 407.41 189.46 403.94 188.63 400.94 200.95 423.53 206.43 426.57 193.86 423.11 193.01 421.2 200.86" />
                <path class="cls-1"
                      d="M164.47,274.83c-6.21-5.06-9.91-.52-13.79,4.25-3.84,4.71-7.58,9.31-1.36,14.37,6.21,5.06,9.95,.47,13.79-4.25,3.88-4.77,7.58-9.31,1.37-14.37Zm-5.18,11.26c-3.76,4.62-5.66,6.39-7.78,4.67-2.12-1.73-.77-3.95,2.99-8.57,3.75-4.61,5.66-6.39,7.78-4.66,2.12,1.73,.77,3.95-2.99,8.56Z" />
                <path class="cls-1"
                      d="M384.76,79.83l4.26,6.9,19.77-12.21-4.16-6.74c-4.36-7.07-11.03-2.31-14.07-.43-6.16,3.8-9.15,7.05-5.81,12.47Zm17.21-9.56l1.23,2-13.69,8.45-1.32-2.13c-1.78-2.88,1.43-4.85,5.07-7.1,4.96-3.06,7.15-3.73,8.71-1.21Z" />
                <path class="cls-1"
                      d="M281.58,318.34v-.06c3.06-.92,3.92-3.27,3.54-6.2-.51-3.93-2.89-5.76-6.17-5.34l-8.91,1.14,2.97,23.05,4.81-.62-1.23-9.55,1.25-.16c3.7-.47,3.75,1.89,4.1,4.63,.19,1.5,.26,3.08,1.09,4.4l4.73-.61c-.57-.9-1.23-5.23-1.42-6.7-.54-4.15-3.7-4-4.77-3.99Zm-3.3-1.39l-2.13,.27-.83-6.41,2.14-.28c1.53-.2,2.56,.51,2.84,2.71,.2,1.46-.1,3.45-2.02,3.7Z" />
                <polygon class="cls-1"
                         points="314.29 301.45 313.05 297.79 298.2 302.83 299.44 306.48 304.56 304.75 310.79 323.09 315.39 321.53 309.16 303.19 314.29 301.45" />
                <polygon class="cls-1"
                         points="289.65 304.82 295.2 327.39 299.92 326.22 294.38 303.66 289.65 304.82" />
                <polygon class="cls-1"
                         points="331.02 293.54 329.35 290.06 315.23 296.87 316.9 300.35 321.78 298 330.19 315.45 334.56 313.34 326.15 295.89 331.02 293.54" />
            </g>
            <path class="cls-1"
                  d="M430.95,66.7c-14.65-26.98-34.98-49.63-59.44-66.7l-2.7,3.21c24.07,16.73,44.07,38.97,58.47,65.48,24.28,44.72,29.69,96.21,15.24,145-23.79,80.34-98.87,136.45-182.57,136.45-18.27,0-36.5-2.66-54.18-7.9-39.12-11.59-72.73-34.84-97.04-66.65l-3.19,2.71c24.83,32.43,59.13,56.13,99.04,67.95,18.08,5.35,36.7,8.07,55.37,8.07h0c85.53,0,162.26-57.34,186.58-139.44,14.77-49.86,9.24-102.49-15.58-148.18Z" />
        </g>
    </g>
</svg>