<svg width="100%" viewBox="0 0 255 67" fill="none" xmlns="http://www.w3.org/2000/svg">
<path d="M108.509 27.9986C108.509 34.0754 103.778 38.3431 97.7944 38.3431H88.2395V48.7323H82.673V17.6545H97.7944C103.871 17.6545 108.509 22.0614 108.509 27.9986M97.4697 33.0546C100.578 33.0546 102.851 31.0601 102.851 28.0447C102.851 25.1229 100.532 23.0826 97.4697 23.0826H88.2395V33.0546H97.4697Z" fill="#25303A"></path>
<path d="M111.01 25.7255H116.345V38.2029C116.345 41.5897 118.478 44.2793 122.003 44.2793C125.621 44.2793 127.755 41.5897 127.755 38.2029V25.7255H133.089V38.2496C133.089 45.0215 128.729 49.382 122.003 49.382C115.324 49.382 111.01 45.0215 111.01 38.2496V25.7255" fill="#25303A"></path>
<path d="M153.397 25.6794V31.0601H148.619C145.001 31.0601 142.497 33.4717 142.497 37.4615V48.7323H137.162V25.6794H142.31V29.483H142.497C143.518 27.0714 145.743 25.6794 148.712 25.6794H153.397Z" fill="#25303A"></path>
<path d="M177.953 39.0379H159.723C160.141 42.0065 162.645 44.3725 166.263 44.4652C168.86 44.512 171.134 43.3513 172.061 41.4966H177.581C176.097 46.5055 171.598 49.3823 166.171 49.3823C158.61 49.3823 154.204 43.7698 154.204 37.2289C154.204 30.411 159.074 25.0297 166.171 25.0297C173.824 25.0297 178.648 31.1064 177.953 39.0379M159.816 34.6777H172.432C171.736 31.8019 169.325 29.9469 166.078 29.9469C162.877 29.9469 160.466 31.8486 159.816 34.6777" fill="#25303A"></path>
<path d="M203.427 35.4666V48.733H198.093V36.3015C198.093 32.6835 195.913 30.2715 192.619 30.2715C189.095 30.2715 186.404 33.0082 186.404 36.997V48.733H181.07V25.6791H186.312V28.6477H186.497C188.167 26.4212 190.857 25.0308 193.964 25.0308C199.716 25.0308 203.427 28.9727 203.427 35.4666" fill="#25303A"></path>
<path d="M224.51 34.2603C223.722 31.9413 221.448 30.1791 218.433 30.1791C214.212 30.1791 211.568 33.3329 211.568 37.2289C211.568 41.0792 214.212 44.2801 218.433 44.2801C221.356 44.2801 223.722 42.5635 224.51 40.105H230.122C229.102 45.4386 224.555 49.3813 218.387 49.3813C211.012 49.3813 206.234 44.001 206.234 37.1832C206.234 30.3643 211.012 25.0297 218.387 25.0297C224.555 25.0297 229.102 28.926 230.122 34.2603H224.51" fill="#25303A"></path>
<path d="M249.526 25.6794H255L245.351 52.3969C244.005 56.1077 241.64 58.0088 237.791 58.0088H231.807V52.7677H237.744C239.042 52.7677 239.878 52.3502 240.435 51.3761L229.766 25.6794H235.657L243.078 44.1408L249.526 25.6794" fill="#25303A"></path>
<path d="M60.6227 49.791H61.4288C61.7444 49.791 62.0395 49.622 62.1941 49.3458C63.2782 47.4054 64.1732 45.3473 64.8553 43.1928C65.063 42.535 64.4684 41.9046 63.8018 42.08L60.4006 42.9805C60.019 43.081 59.7537 43.4258 59.7537 43.8208V48.922C59.7537 49.4017 60.1424 49.791 60.6227 49.791" fill="#25303A"></path>
<path d="M65.5935 36.5105C65.9516 36.5105 66.2549 36.2371 66.2833 35.8808C66.3553 34.995 66.3933 34.0978 66.3933 33.194C66.3933 31.0997 66.1955 29.0504 65.823 27.0643C65.7024 26.4173 64.8198 26.3024 64.5274 26.8914L60.2463 35.5167C60.019 35.9746 60.3524 36.5105 60.8626 36.5105H65.5935" fill="#25303A"></path>
<path d="M40.2994 17.0575L44.6606 21.4188C45.3307 22.0892 46.4742 21.6148 46.4742 20.6685V14.3355C46.4742 13.7491 46.95 13.2733 47.5365 13.2733H52.6641C52.9512 13.2733 53.2273 13.157 53.427 12.95L55.8685 10.4323C56.2786 10.0096 56.2733 9.32569 55.8425 8.92474C53.3855 6.63153 50.5778 4.7129 47.5105 3.24469C47.1057 3.05038 46.6172 3.14106 46.3006 3.46158L43.3292 6.45683C43.215 6.57387 43.1278 6.71447 43.0766 6.8701L40.0422 15.9699C39.9161 16.3522 40.0151 16.7732 40.2994 17.0575" fill="#25303A"></path>
<path d="M60.0784 23.233H63.7741C64.3128 23.233 64.7032 22.702 64.5233 22.1939C63.8908 20.3965 63.1057 18.6729 62.1889 17.0329C62.0483 16.782 61.7813 16.6292 61.4946 16.6292H55.0246C54.3211 16.6292 53.9694 17.4802 54.4686 17.9757L59.5225 23.0035C59.6701 23.1501 59.8696 23.233 60.0784 23.233" fill="#25303A"></path>
<path d="M36.6984 3.26117L38.5956 1.47532C38.9836 1.11027 38.7731 0.4668 38.2459 0.384938C36.7111 0.149517 35.1414 0.0170104 33.5439 0.000907896C33.3699 -0.000891268 33.2009 0.0694574 33.0786 0.19342L30.9421 2.35529C30.5471 2.75444 30.8297 3.43372 31.393 3.43372H36.2651C36.4261 3.43372 36.5807 3.37155 36.6984 3.26117" fill="#25303A"></path>
<path d="M41.1236 56.4307H52.4243C52.8044 56.4307 53.1141 56.7399 53.1141 57.1195V58.3279C53.1141 58.9134 53.7961 59.2317 54.2476 58.8603C55.7137 57.6575 57.0739 56.3316 58.3154 54.8976C58.5899 54.5803 58.5108 54.089 58.1562 53.8641L47.0436 46.8312C46.727 46.6312 46.3088 46.7205 46.1008 47.0318L40.5505 55.3593C40.2437 55.8161 40.573 56.4307 41.1236 56.4307" fill="#25303A"></path>
<path d="M35.1944 9.29308L24.339 3.865C23.73 3.56103 22.9907 3.80734 22.6864 4.41563L17.4895 14.8111C17.0794 15.6298 17.6757 16.5934 18.5908 16.5934H20.2406C21.338 16.5934 21.887 17.9202 21.1114 18.6965C20.5175 19.2893 20.6795 20.2898 21.4291 20.6675L25.6138 22.7706C26.1456 23.0388 26.7932 22.8866 27.1512 22.4101L35.6281 11.1347C36.0902 10.5201 35.8814 9.6378 35.1944 9.29308" fill="#25303A"></path>
<path d="M26.3028 31.0439L28.9431 32.8054C29.3065 33.0465 29.5251 33.4541 29.5251 33.8902V35.9708C29.5251 36.3173 29.3873 36.6501 29.1428 36.894L24.5152 41.5215C23.7983 42.2384 24.1374 43.4644 25.1224 43.7111L34.543 46.0651C35.3661 46.271 36.1641 45.6487 36.1641 44.7994V37.0532C36.1641 36.7059 36.3014 36.3739 36.5471 36.1293L41.8799 30.7958C42.3902 30.2855 42.3902 29.4591 41.8799 28.9488L36.87 23.9372C36.4529 23.5218 35.8095 23.4354 35.2986 23.7278L26.3793 28.8248C25.5363 29.3059 25.4959 30.5058 26.3028 31.0439" fill="#25303A"></path>
<path d="M35.8199 52.9371L26.4533 50.5954C25.5495 50.3698 24.9222 51.4778 25.5807 52.1356L29.2269 55.7814C29.5857 56.1395 29.5857 56.7217 29.2269 57.0798L26.3482 59.9591C26.046 60.2607 25.9919 60.7301 26.2161 61.0928L29.1208 65.7787C29.2708 66.0204 29.5238 66.1824 29.8071 66.2112C30.9216 66.3254 32.0507 66.3894 33.1966 66.3894C36.6962 66.3894 40.0669 65.8426 43.2343 64.8366C44.0169 64.5874 44.0889 63.5027 43.3521 63.1376L37.0262 60.0034C36.7131 59.8485 36.5163 59.529 36.5163 59.1812V53.8276C36.5163 53.4066 36.2292 53.0398 35.8199 52.9371" fill="#25303A"></path>
<path d="M48.9826 37.3234L44.3901 41.9158C43.9344 42.372 44.258 43.151 44.9031 43.151H55.429C55.923 43.151 56.272 42.6671 56.1156 42.1991L51.2044 27.4649C50.9455 26.6869 49.7939 26.8738 49.7939 27.6943V35.364C49.7939 36.0991 49.5026 36.8044 48.9826 37.3234Z" fill="#25303A"></path>
<path d="M16.3432 42.6896L13.792 37.5873C13.5095 37.0205 12.7888 36.8396 12.2715 37.2039L2.62525 44.0137C2.24047 44.2864 2.08128 44.7902 2.25206 45.2291C2.79532 46.6225 3.43241 47.9684 4.15208 49.2629C4.33375 49.5911 4.68374 49.791 5.05869 49.791H12.6162C13.0074 49.791 13.3654 49.5696 13.5401 49.2197L16.3432 43.6134C16.4879 43.3221 16.4879 42.9802 16.3432 42.6896Z" fill="#25303A"></path>
<path d="M19.9176 32.0471V27.6979C19.9176 27.0653 19.4049 26.5527 18.7724 26.5527H14.4227C13.7906 26.5527 13.2786 26.04 13.2786 25.4081V20.6143C13.2786 20.1835 13.0365 19.7903 12.6542 19.5942L5.947 16.1723C5.41006 15.8979 4.74522 16.0823 4.44301 16.6031C3.6109 18.0396 2.88104 19.544 2.26961 21.1074C2.1048 21.5277 2.21092 22.0059 2.52754 22.3264L12.9419 32.8522C13.157 33.07 13.4494 33.1924 13.7554 33.1924H18.7724C19.4049 33.1924 19.9176 32.6796 19.9176 32.0471" fill="#25303A"></path>
<path d="M2.96054 29.8722H0.954402C0.508123 29.8722 0.130369 30.2134 0.0962832 30.6569C0.0333829 31.4944 0 32.3409 0 33.1937C0 34.6752 0.101555 36.1335 0.292364 37.5619C0.38689 38.2682 1.25239 38.5596 1.75524 38.0543L5.99311 33.7935C6.32483 33.4607 6.32589 32.9221 5.99557 32.5882L3.57127 30.1277C3.40927 29.9651 3.19 29.8722 2.96054 29.8722" fill="#25303A"></path>
<path d="M12.468 7.26643C11.626 7.93941 10.8171 8.65206 10.0461 9.40231C9.85811 9.58574 9.85919 9.8897 10.0461 10.0752L12.4708 12.4742C12.7674 12.7684 13.2712 12.5553 13.2684 12.1379L13.2252 7.63265C13.2217 7.24502 12.7701 7.02364 12.468 7.26643Z" fill="#25303A"></path>
<path d="M16.3015 53.1771H8.21053C7.58714 53.1771 7.24875 53.9059 7.64723 54.3845C10.6977 58.0584 14.5255 61.0604 18.8786 63.1446C19.3608 63.3747 19.9177 63.0114 19.9177 62.478V56.7379C19.9177 56.5417 19.8383 56.3537 19.6981 56.2149L16.8149 53.3869C16.6775 53.2527 16.4937 53.1771 16.3015 53.1771" fill="#25303A"></path>
</svg>